<svg id="Capa_1" data-name="Capa 1" xmlns="http://www.w3.org/2000/svg" viewBox="0 0 800 800"><defs><style>.cls-1{fill:#fff;}</style></defs><title>icono methodo</title><path class="cls-1" d="M766.41,109.38a30.13,30.13,0,0,0-13.79-2.07,20.09,20.09,0,0,0-2.47-.16H205.77A30.91,30.91,0,0,0,195,109.1a31.26,31.26,0,0,0-25,19.59l-132,341.23a31.2,31.2,0,0,0,17.83,40.27,29.09,29.09,0,0,0,15.94,1.72,28.15,28.15,0,0,0,4.71.39H378.07a31.16,31.16,0,1,0,0-62.32H112.46L221,169.46H708.86L561.11,539.65h-520a31.16,31.16,0,0,0,0,62.31H303.73l20,30.27H268.24a31.16,31.16,0,1,0,0,62.31H487.9a31.16,31.16,0,1,0,0-62.31H407.61l-20-30.27H581.5a31,31,0,0,0,28.28-18.12,31.61,31.61,0,0,0,3.08-5.74L783.78,149.86A31.2,31.2,0,0,0,766.41,109.38Z"/><circle class="cls-1" cx="473.02" cy="480.99" r="31.77"/></svg>